<svg width="29" height="18" viewBox="0 0 29 18" fill="none" xmlns="http://www.w3.org/2000/svg">
<path d="M18.4205 1.925H10.5793V16.075H18.4205V1.925Z" fill="#FF5F00"/>
<path d="M11.0772 9C11.0772 6.125 12.4215 3.575 14.4875 1.925C12.9691 0.725003 11.0524 0 8.96137 0C4.00772 0 0 4.025 0 9C0 13.975 4.00772 18 8.96137 18C11.0524 18 12.9691 17.275 14.4875 16.075C12.4215 14.425 11.0772 11.875 11.0772 9Z" fill="#EB001B"/>
<path d="M29 9C29 13.975 24.9923 18 20.0386 18C17.9476 18 16.0309 17.275 14.5125 16.075C16.6034 14.425 17.9228 11.875 17.9228 9C17.9228 6.125 16.5785 3.575 14.5125 1.925C16.0309 0.725003 17.9476 0 20.0386 0C24.9923 0 29 4.025 29 9Z" fill="#F79E1B"/>
<path d="M28.1537 14.575V14.275H28.2782V14.225H27.9795V14.275H28.104V14.575H28.1537ZM28.7263 14.575V14.225H28.6267L28.5271 14.475L28.4276 14.225H28.328V14.575H28.4027V14.3L28.5022 14.525H28.5769L28.6765 14.3V14.575H28.7263Z" fill="#F79E1B"/>
</svg>
