<svg width="58" height="12" viewBox="0 0 58 12" fill="none" xmlns="http://www.w3.org/2000/svg">
<path d="M5.57054 6.87576L7.23015 2.89505L8.88977 6.87576H5.57054ZM5.23861 0L0 11.9132H3.49241L4.48818 9.49578H9.98656L10.9968 11.9132H14.5758L9.33715 0H5.23861Z" fill="#3C6DB1"/>
<path d="M22.8736 7.49819L20.1605 0H15.1672V11.9132H18.2989V3.32931L21.4305 11.9132H24.2446L27.3762 3.32931V11.9132H30.5079V0H25.5723L22.8736 7.49819Z" fill="#3C6DB1"/>
<path d="M32.8459 12H42.8902V9.29312H36.0209V7.38239H42.7171V4.68999H36.0209V2.79373H42.8902V0.086853H32.8459V12Z" fill="#3C6DB1"/>
<path d="M57.7979 0.086853H53.7571L50.6688 3.67672L47.5805 0.086853H43.4531L48.6773 5.97829L43.3521 12H47.3784L50.6255 8.22195L53.8581 12H58L52.6459 5.90591L57.7979 0.086853Z" fill="#3C6DB1"/>
</svg>
