<svg width="50" height="16" viewBox="0 0 50 16" fill="none" xmlns="http://www.w3.org/2000/svg">
<path d="M18.9759 0.275074L12.4189 15.7479H8.1557L4.93512 3.41547C4.74977 2.65902 4.56441 2.38395 3.98517 2.06304C3.01205 1.53582 1.41335 1.05444 0 0.756444L0.0926841 0.297992H6.97406C7.8545 0.297992 8.64227 0.871063 8.82763 1.87966L10.5422 10.8195L14.759 0.297992H18.9759V0.275074ZM35.7275 10.7049C35.7507 6.62465 30.0278 6.39542 30.051 4.58453C30.0741 4.03438 30.6071 3.43839 31.7655 3.27793C32.3448 3.20917 33.9435 3.1404 35.7507 3.96561L36.469 0.687679C35.4958 0.34384 34.2447 0 32.6923 0C28.7071 0 25.8805 2.10888 25.8573 5.11175C25.8341 7.33524 27.873 8.57307 29.4022 9.32952C30.9778 10.086 31.5107 10.5673 31.5107 11.255C31.4875 12.2865 30.2595 12.745 29.101 12.7679C27.0621 12.7908 25.8804 12.2178 24.9537 11.7822L24.2122 15.1748C25.1622 15.6103 26.8999 15.9771 28.7071 16C32.924 15.9771 35.7044 13.914 35.7275 10.7049ZM46.2697 15.7479H50L46.7331 0.275074H43.2808C42.493 0.275074 41.8443 0.710603 41.5663 1.39828L35.4958 15.7249H39.7359L40.57 13.4097H45.76L46.2697 15.7479ZM41.7748 10.2693L43.9064 4.46991L45.1344 10.2693H41.7748ZM24.7451 0.275074L21.4087 15.7479H17.354L20.6905 0.275074H24.7451Z" fill="url(#paint0_linear_891_196)"/>
<defs>
<linearGradient id="paint0_linear_891_196" x1="-0.0251622" y1="7.99287" x2="50.0212" y2="7.99287" gradientUnits="userSpaceOnUse">
<stop stop-color="#232059"/>
<stop offset="1" stop-color="#214E9C"/>
</linearGradient>
</defs>
</svg>
