<svg width="72" height="12" viewBox="0 0 72 12" fill="none" xmlns="http://www.w3.org/2000/svg">
<path d="M3.21429 0.32827H0V11.5912H3.21429C4.91337 11.5912 6.14286 11.1824 7.22796 10.3009C8.51824 9.23557 9.27508 7.6383 9.27508 5.98025C9.25532 2.64286 6.77812 0.32827 3.21429 0.32827ZM5.79483 8.80547C5.09878 9.41945 4.21884 9.70669 2.78419 9.70669H2.19149V2.2538H2.78571C4.19909 2.2538 5.05927 2.5 5.79635 3.15502C6.55471 3.83131 7.00456 4.87538 7.00456 5.96049C7.00304 7.04559 6.55167 8.1307 5.79483 8.80547Z" fill="#231F20"/>
<path d="M12.471 0.32827H10.2795V11.5912H12.471V0.32827Z" fill="#231F20"/>
<path d="M17.8343 4.64894C16.5243 4.15805 16.1352 3.82979 16.1352 3.23556C16.1352 2.51824 16.8313 1.98632 17.7735 1.98632C18.4286 1.98632 18.9818 2.25228 19.5349 2.90729L20.6824 1.41185C19.7401 0.592704 18.614 0.162613 17.3647 0.162613C15.3784 0.162613 13.8435 1.55471 13.8435 3.39817C13.8435 4.9544 14.5608 5.75228 16.6079 6.49088C17.4681 6.79787 17.8982 7.00304 18.1231 7.12614C18.5532 7.41337 18.7781 7.82219 18.7781 8.29331C18.7781 9.21428 18.0608 9.89058 17.079 9.89058C16.0349 9.89058 15.1945 9.35866 14.6839 8.39514L13.2705 9.76748C14.2735 11.2629 15.503 11.9179 17.1611 11.9179C19.4346 11.9179 21.0517 10.4027 21.0517 8.21124C21.0912 6.38906 20.3328 5.56991 17.8343 4.64894Z" fill="#231F20"/>
<path d="M21.7659 5.98025C21.7659 9.29788 24.3662 11.8571 27.7036 11.8571C28.6458 11.8571 29.465 11.6733 30.4467 11.2021V8.62159C29.5668 9.50152 28.7887 9.84955 27.8054 9.84955C25.5941 9.84955 24.0166 8.25228 24.0166 5.95897C24.0166 3.78876 25.6336 2.08815 27.702 2.08815C28.7461 2.08815 29.5455 2.45745 30.4452 3.35715V0.7766C29.4832 0.285719 28.6838 0.0805511 27.7416 0.0805511C24.4482 0.0820709 21.7659 2.70365 21.7659 5.98025Z" fill="#231F20"/>
<path d="M47.895 7.90426L44.8844 0.32827H42.4893L47.2598 11.8769H48.4482L53.3008 0.32827H50.9254L47.895 7.90426Z" fill="#231F20"/>
<path d="M54.304 11.5912H60.5289V9.68693H56.4954V6.65654H60.386V4.75076H56.4954V2.2538H60.5289V0.32827H54.304V11.5912Z" fill="#231F20"/>
<path d="M69.2311 3.66566C69.2311 1.55624 67.7767 0.34803 65.2387 0.34803H61.9834V11.6109H64.1749V7.08511H64.4621L67.4925 11.6109H70.1962L66.6536 6.86019C68.3101 6.51216 69.2311 5.38602 69.2311 3.66566ZM64.8086 5.52888H64.1734V2.10943H64.8497C66.222 2.10943 66.9591 2.68238 66.9591 3.78876C66.9591 4.9149 66.222 5.52888 64.8086 5.52888Z" fill="#231F20"/>
<path d="M37.1853 12C40.499 12 43.1853 9.31371 43.1853 6C43.1853 2.68629 40.499 0 37.1853 0C33.8716 0 31.1853 2.68629 31.1853 6C31.1853 9.31371 33.8716 12 37.1853 12Z" fill="url(#paint0_linear_891_245)"/>
<path opacity="0.65" d="M37.1853 12C40.499 12 43.1853 9.31371 43.1853 6C43.1853 2.68629 40.499 0 37.1853 0C33.8716 0 31.1853 2.68629 31.1853 6C31.1853 9.31371 33.8716 12 37.1853 12Z" fill="url(#paint1_linear_891_245)"/>
<path d="M70.6246 0.758339C70.6246 0.553172 70.4817 0.451347 70.2553 0.451347H69.927V1.43463H70.1732V1.04557L70.4604 1.43463H70.7477L70.4194 1.02582C70.5425 1.00454 70.6246 0.901196 70.6246 0.758339ZM70.2142 0.901196H70.1732V0.635239H70.2142C70.3373 0.635239 70.3981 0.676272 70.3981 0.758339C70.3981 0.860163 70.3373 0.901196 70.2142 0.901196Z" fill="#231F20"/>
<path d="M70.2965 0.0820694C69.8253 0.0820694 69.4363 0.471128 69.4363 0.942252C69.4363 1.41338 69.8253 1.80243 70.2965 1.80243C70.7676 1.80243 71.1566 1.41338 71.1566 0.942252C71.1566 0.471128 70.7676 0.0820694 70.2965 0.0820694ZM70.2965 1.65958C69.9272 1.65958 69.6004 1.35259 69.6004 0.942252C69.6004 0.553195 69.9074 0.224927 70.2965 0.224927C70.6658 0.224927 70.9728 0.553195 70.9728 0.942252C70.9728 1.33131 70.6658 1.65958 70.2965 1.65958Z" fill="#231F20"/>
<defs>
<linearGradient id="paint0_linear_891_245" x1="40.2519" y1="10.8017" x2="36.1046" y2="4.30821" gradientUnits="userSpaceOnUse">
<stop stop-color="#F89F20"/>
<stop offset="0.2502" stop-color="#F79A20"/>
<stop offset="0.5331" stop-color="#F68D20"/>
<stop offset="0.6196" stop-color="#F58720"/>
<stop offset="0.7232" stop-color="#F48120"/>
<stop offset="1" stop-color="#F37521"/>
</linearGradient>
<linearGradient id="paint1_linear_891_245" x1="39.5971" y1="10.7143" x2="33.5357" y2="-1.13313" gradientUnits="userSpaceOnUse">
<stop stop-color="#F58720"/>
<stop offset="0.3587" stop-color="#E16F27"/>
<stop offset="0.703" stop-color="#D4602C"/>
<stop offset="0.9816" stop-color="#D05B2E"/>
</linearGradient>
</defs>
</svg>
